<svg xmlns="http://www.w3.org/2000/svg" xmlns:xlink="http://www.w3.org/1999/xlink" width="1400" zoomAndPan="magnify" viewBox="0 0 1050 299.999988" height="400" preserveAspectRatio="xMidYMid meet" version="1.0"><defs><g/><clipPath id="79b97ecef0"><rect x="0" width="178" y="0" height="252"/></clipPath></defs><g transform="matrix(1, 0, 0, 1, 0, 24)"><g clip-path="url(#79b97ecef0)"><g fill="#102a43" fill-opacity="1"><g transform="translate(0.000021, 174.411063)"><g><path d="M 65.015625 -167.796875 C 62.847656 -166.960938 61.304688 -166.253906 60.390625 -165.671875 C 59.472656 -165.085938 59.015625 -164.296875 59.015625 -163.296875 L 59.015625 -25 L 163.796875 -25 C 164.960938 -25 165.753906 -25.457031 166.171875 -26.375 C 166.585938 -27.289062 167.128906 -29.171875 167.796875 -32.015625 L 170.046875 -32.015625 L 170.046875 6 L 167.796875 6 C 167.296875 4 166.753906 2.5 166.171875 1.5 C 165.585938 0.5 164.628906 0 163.296875 0 L 24.75 0 L 24.75 -2.25 C 26.914062 -2.914062 28.457031 -3.5 29.375 -4 C 30.289062 -4.5 30.75 -5.332031 30.75 -6.5 L 30.75 -163.796875 C 30.75 -164.628906 30.414062 -165.253906 29.75 -165.671875 C 29.082031 -166.085938 28.207031 -166.503906 27.125 -166.921875 C 26.039062 -167.335938 25.25 -167.628906 24.75 -167.796875 L 24.75 -170.046875 L 65.015625 -170.046875 Z M 65.015625 -167.796875 "/></g></g></g><g fill="#102a43" fill-opacity="1"><g transform="translate(58.155602, 148.189354)"><g><path d="M 55.015625 -109.25 C 63.554688 -109.25 71.160156 -108.363281 77.828125 -106.59375 C 84.503906 -104.820312 90.601562 -102.789062 96.125 -100.5 C 98 -99.664062 99.09375 -99.25 99.40625 -99.25 C 99.820312 -99.25 100.265625 -99.535156 100.734375 -100.109375 C 101.203125 -100.679688 101.75 -101.488281 102.375 -102.53125 L 103.9375 -101.75 L 89.71875 -74.390625 L 88.15625 -75.171875 C 88.570312 -76.523438 88.78125 -77.832031 88.78125 -79.09375 C 88.78125 -79.925781 86.847656 -81.125 82.984375 -82.6875 C 79.128906 -84.25 74.492188 -85.628906 69.078125 -86.828125 C 63.660156 -88.023438 58.609375 -88.625 53.921875 -88.625 C 46.523438 -88.625 40.691406 -87.554688 36.421875 -85.421875 C 32.148438 -83.285156 30.015625 -80.546875 30.015625 -77.203125 C 30.015625 -74.078125 32.332031 -71.734375 36.96875 -70.171875 C 41.601562 -68.609375 49.179688 -67.566406 59.703125 -67.046875 C 74.609375 -66.316406 85.835938 -63.007812 93.390625 -57.125 C 100.941406 -51.238281 104.71875 -43.765625 104.71875 -34.703125 C 104.71875 -27.503906 102.632812 -21.144531 98.46875 -15.625 C 94.300781 -10.101562 88.410156 -5.804688 80.796875 -2.734375 C 73.191406 0.335938 64.441406 1.875 54.546875 1.875 C 45.691406 1.875 37.875 0.882812 31.09375 -1.09375 C 24.320312 -3.070312 17.707031 -5.519531 11.25 -8.4375 C 8.75 -9.582031 7.238281 -10.15625 6.71875 -10.15625 C 5.882812 -10.15625 4.632812 -9.007812 2.96875 -6.71875 L 1.40625 -7.5 L 11.875 -35.953125 L 13.59375 -35.328125 C 13.28125 -34.078125 13.125 -33.035156 13.125 -32.203125 C 13.125 -30.640625 15.546875 -28.835938 20.390625 -26.796875 C 25.242188 -24.765625 31.109375 -23.019531 37.984375 -21.5625 C 44.859375 -20.101562 51.109375 -19.375 56.734375 -19.375 C 63.816406 -19.375 69.519531 -20.570312 73.84375 -22.96875 C 78.175781 -25.375 80.34375 -28.347656 80.34375 -31.890625 C 80.34375 -34.078125 79.765625 -35.796875 78.609375 -37.046875 C 77.460938 -38.296875 74.78125 -39.390625 70.5625 -40.328125 C 66.34375 -41.265625 59.546875 -42.203125 50.171875 -43.140625 C 37.046875 -44.390625 26.335938 -47.253906 18.046875 -51.734375 C 9.765625 -56.210938 5.625 -63.765625 5.625 -74.390625 C 5.625 -80.234375 7.421875 -85.835938 11.015625 -91.203125 C 14.609375 -96.566406 20.128906 -100.914062 27.578125 -104.25 C 35.035156 -107.582031 44.179688 -109.25 55.015625 -109.25 Z M 55.015625 -109.25 "/></g></g></g></g></g><g fill="#102a43" fill-opacity="1"><g transform="translate(236.341804, 172.874986)"><g><path d="M 42.234375 -83.875 C 48.796875 -83.875 54.632812 -83.191406 59.75 -81.828125 C 64.875 -80.472656 69.554688 -78.914062 73.796875 -77.15625 C 75.234375 -76.519531 76.070312 -76.203125 76.3125 -76.203125 C 76.632812 -76.203125 76.972656 -76.421875 77.328125 -76.859375 C 77.691406 -77.296875 78.113281 -77.914062 78.59375 -78.71875 L 79.796875 -78.125 L 68.875 -57.125 L 67.6875 -57.71875 C 68 -58.757812 68.15625 -59.757812 68.15625 -60.71875 C 68.15625 -61.363281 66.675781 -62.285156 63.71875 -63.484375 C 60.757812 -64.679688 57.195312 -65.738281 53.03125 -66.65625 C 48.875 -67.582031 45 -68.046875 41.40625 -68.046875 C 35.71875 -68.046875 31.234375 -67.222656 27.953125 -65.578125 C 24.679688 -63.941406 23.046875 -61.84375 23.046875 -59.28125 C 23.046875 -56.882812 24.820312 -55.082031 28.375 -53.875 C 31.9375 -52.675781 37.757812 -51.878906 45.84375 -51.484375 C 57.28125 -50.921875 65.898438 -48.378906 71.703125 -43.859375 C 77.503906 -39.335938 80.40625 -33.597656 80.40625 -26.640625 C 80.40625 -21.117188 78.800781 -16.238281 75.59375 -12 C 72.394531 -7.757812 67.875 -4.457031 62.03125 -2.09375 C 56.195312 0.257812 49.476562 1.4375 41.875 1.4375 C 35.082031 1.4375 29.082031 0.675781 23.875 -0.84375 C 18.675781 -2.363281 13.597656 -4.242188 8.640625 -6.484375 C 6.722656 -7.359375 5.5625 -7.796875 5.15625 -7.796875 C 4.519531 -7.796875 3.5625 -6.914062 2.28125 -5.15625 L 1.078125 -5.765625 L 9.125 -27.59375 L 10.4375 -27.125 C 10.195312 -26.164062 10.078125 -25.363281 10.078125 -24.71875 C 10.078125 -23.519531 11.9375 -22.140625 15.65625 -20.578125 C 19.375 -19.015625 23.875 -17.671875 29.15625 -16.546875 C 34.4375 -15.429688 39.238281 -14.875 43.5625 -14.875 C 49 -14.875 53.378906 -15.796875 56.703125 -17.640625 C 60.023438 -19.484375 61.6875 -21.765625 61.6875 -24.484375 C 61.6875 -26.160156 61.242188 -27.476562 60.359375 -28.4375 C 59.484375 -29.394531 57.421875 -30.234375 54.171875 -30.953125 C 50.929688 -31.679688 45.710938 -32.40625 38.515625 -33.125 C 28.441406 -34.082031 20.222656 -36.28125 13.859375 -39.71875 C 7.492188 -43.15625 4.3125 -48.957031 4.3125 -57.125 C 4.3125 -61.601562 5.691406 -65.898438 8.453125 -70.015625 C 11.210938 -74.140625 15.453125 -77.476562 21.171875 -80.03125 C 26.898438 -82.59375 33.921875 -83.875 42.234375 -83.875 Z M 42.234375 -83.875 "/></g></g></g><g fill="#102a43" fill-opacity="1"><g transform="translate(322.613358, 172.874986)"><g><path d="M 55.4375 -83.046875 C 67.28125 -83.046875 77 -80.84375 84.59375 -76.4375 C 92.195312 -72.039062 97.675781 -66.617188 101.03125 -60.171875 C 104.394531 -53.734375 106.078125 -47.316406 106.078125 -40.921875 C 106.078125 -34.597656 104.4375 -28.175781 101.15625 -21.65625 C 97.875 -15.132812 92.550781 -9.65625 85.1875 -5.21875 C 77.832031 -0.78125 68.394531 1.4375 56.875 1.4375 C 45.195312 1.4375 35.578125 -0.738281 28.015625 -5.09375 C 20.460938 -9.457031 14.984375 -14.859375 11.578125 -21.296875 C 8.179688 -27.734375 6.484375 -34.234375 6.484375 -40.796875 C 6.484375 -48.078125 8.398438 -54.9375 12.234375 -61.375 C 16.078125 -67.820312 21.695312 -73.046875 29.09375 -77.046875 C 36.5 -81.046875 45.28125 -83.046875 55.4375 -83.046875 Z M 27.953125 -41.15625 C 27.953125 -36.351562 28.992188 -31.972656 31.078125 -28.015625 C 33.160156 -24.054688 36.359375 -20.875 40.671875 -18.46875 C 44.992188 -16.070312 50.316406 -14.875 56.640625 -14.875 C 65.515625 -14.875 72.390625 -17.253906 77.265625 -22.015625 C 82.148438 -26.773438 84.59375 -33.195312 84.59375 -41.28125 C 84.59375 -45.4375 83.59375 -49.453125 81.59375 -53.328125 C 79.59375 -57.210938 76.515625 -60.414062 72.359375 -62.9375 C 68.203125 -65.457031 63.082031 -66.71875 57 -66.71875 C 48.195312 -66.71875 41.15625 -64.414062 35.875 -59.8125 C 30.59375 -55.21875 27.953125 -49 27.953125 -41.15625 Z M 27.953125 -41.15625 "/></g></g></g><g fill="#102a43" fill-opacity="1"><g transform="translate(435.162329, 172.874986)"><g><path d="M 87.59375 -61.6875 C 87.4375 -62.957031 87.21875 -63.875 86.9375 -64.4375 C 86.65625 -65 86.113281 -65.28125 85.3125 -65.28125 L 35.875 -65.28125 L 35.875 -48.234375 L 68.15625 -48.234375 C 68.957031 -48.234375 69.476562 -48.515625 69.71875 -49.078125 C 69.957031 -49.640625 70.15625 -50.5625 70.3125 -51.84375 L 71.40625 -51.84375 L 71.40625 -28.3125 L 70.3125 -28.3125 C 70.15625 -29.757812 69.976562 -30.722656 69.78125 -31.203125 C 69.582031 -31.679688 69.039062 -31.921875 68.15625 -31.921875 L 35.875 -31.921875 L 35.875 -2.515625 C 36.351562 -1.960938 36.851562 -1.601562 37.375 -1.4375 C 37.894531 -1.28125 38.597656 -1.160156 39.484375 -1.078125 L 39.484375 0 L 10.796875 0 L 10.796875 -1.078125 C 12.316406 -1.160156 13.519531 -1.640625 14.40625 -2.515625 L 14.40625 -79.078125 C 14 -79.640625 13.515625 -80 12.953125 -80.15625 C 12.398438 -80.320312 11.679688 -80.441406 10.796875 -80.515625 L 10.796875 -81.59375 L 84.59375 -81.59375 C 85.800781 -81.59375 86.5625 -81.8125 86.875 -82.25 C 87.195312 -82.695312 87.4375 -83.679688 87.59375 -85.203125 L 88.6875 -85.203125 L 88.6875 -61.6875 Z M 87.59375 -61.6875 "/></g></g></g><g fill="#102a43" fill-opacity="1"><g transform="translate(527.673293, 172.874986)"><g><path d="M 5.765625 -85.203125 C 5.835938 -84.484375 5.972656 -83.757812 6.171875 -83.03125 C 6.378906 -82.3125 6.640625 -81.832031 6.953125 -81.59375 L 91.078125 -81.59375 C 91.554688 -81.59375 91.972656 -81.875 92.328125 -82.4375 C 92.691406 -83 92.914062 -83.921875 93 -85.203125 L 94.078125 -85.203125 L 94.078125 -60.125 L 93 -60.125 C 92.914062 -61.320312 92.675781 -62.238281 92.28125 -62.875 C 91.882812 -63.519531 91.441406 -63.84375 90.953125 -63.84375 L 60.125 -63.84375 L 60.125 -3 C 60.125 -2.519531 60.421875 -2.078125 61.015625 -1.671875 C 61.617188 -1.273438 62.519531 -1.078125 63.71875 -1.078125 L 63.71875 0 L 35.046875 0 L 35.046875 -1.078125 C 36.316406 -1.160156 37.234375 -1.421875 37.796875 -1.859375 C 38.359375 -2.296875 38.640625 -2.71875 38.640625 -3.125 L 38.640625 -63.71875 L 7.5625 -63.71875 C 6.519531 -63.71875 5.921875 -62.519531 5.765625 -60.125 L 4.6875 -60.125 L 4.6875 -85.203125 Z M 5.765625 -85.203125 "/></g></g></g><g fill="#102a43" fill-opacity="1"><g transform="translate(626.42362, 172.874986)"><g><path d="M 38.28125 -80.515625 C 36.914062 -80.515625 35.972656 -80.253906 35.453125 -79.734375 C 34.941406 -79.210938 34.6875 -78.472656 34.6875 -77.515625 L 34.6875 -18.125 L 84.125 -18.125 C 84.675781 -18.125 85.171875 -18.398438 85.609375 -18.953125 C 86.054688 -19.515625 86.28125 -20.4375 86.28125 -21.71875 L 87.359375 -21.71875 L 87.359375 3.59375 L 86.28125 3.59375 C 86.28125 2.394531 86.078125 1.492188 85.671875 0.890625 C 85.273438 0.296875 84.835938 0 84.359375 0 L 9.59375 0 L 9.59375 -1.078125 C 10.71875 -1.160156 11.597656 -1.476562 12.234375 -2.03125 C 12.878906 -2.59375 13.203125 -3.273438 13.203125 -4.078125 L 13.203125 -77.875 C 13.203125 -78.914062 12.878906 -79.613281 12.234375 -79.96875 C 11.597656 -80.332031 10.71875 -80.515625 9.59375 -80.515625 L 9.59375 -81.59375 L 38.28125 -81.59375 Z M 38.28125 -80.515625 "/></g></g></g><g fill="#102a43" fill-opacity="1"><g transform="translate(718.934537, 172.874986)"><g><path d="M 85.078125 -61.6875 C 84.992188 -62.71875 84.769531 -63.472656 84.40625 -63.953125 C 84.050781 -64.441406 83.4375 -64.882812 82.5625 -65.28125 L 34.921875 -65.28125 L 34.921875 -49.6875 L 65.640625 -49.6875 C 66.359375 -49.84375 66.894531 -50.160156 67.25 -50.640625 C 67.613281 -51.117188 67.878906 -52 68.046875 -53.28125 L 69.125 -53.28125 L 69.125 -30 L 68.046875 -30 C 67.878906 -30.957031 67.675781 -31.71875 67.4375 -32.28125 C 67.195312 -32.84375 66.757812 -33.28125 66.125 -33.59375 L 34.921875 -33.59375 L 34.921875 -16.3125 L 83.28125 -16.3125 C 84.238281 -16.632812 84.878906 -16.992188 85.203125 -17.390625 C 85.523438 -17.796875 85.765625 -18.640625 85.921875 -19.921875 L 87 -19.921875 L 87 3.59375 L 85.921875 3.59375 C 85.765625 2.632812 85.546875 1.894531 85.265625 1.375 C 84.984375 0.851562 84.519531 0.394531 83.875 0 L 9.84375 0 L 9.84375 -1.078125 C 11.195312 -1.078125 12.394531 -1.554688 13.4375 -2.515625 L 13.4375 -79.078125 C 12.082031 -80.035156 10.882812 -80.515625 9.84375 -80.515625 L 9.84375 -81.59375 L 82.3125 -81.59375 C 84 -81.832031 84.921875 -83.035156 85.078125 -85.203125 L 86.15625 -85.203125 L 86.15625 -61.6875 Z M 85.078125 -61.6875 "/></g></g></g><g fill="#102a43" fill-opacity="1"><g transform="translate(811.445501, 172.874986)"><g><path d="M 41.046875 -80.515625 C 39.765625 -80.441406 38.484375 -80.039062 37.203125 -79.3125 L 81.953125 -30.84375 L 81.953125 -78.484375 C 81.953125 -79.285156 81.648438 -79.820312 81.046875 -80.09375 C 80.453125 -80.375 79.554688 -80.515625 78.359375 -80.515625 L 78.359375 -81.59375 L 101.875 -81.59375 L 101.875 -80.515625 C 99.476562 -80.515625 98.28125 -79.796875 98.28125 -78.359375 L 98.28125 -3.59375 C 98.28125 -2.71875 98.554688 -2.078125 99.109375 -1.671875 C 99.671875 -1.273438 100.59375 -1.078125 101.875 -1.078125 L 101.875 0 L 76.796875 0 L 76.796875 -1.078125 C 78.398438 -1.234375 79.757812 -1.59375 80.875 -2.15625 L 29.875 -57.84375 L 29.875 -3.484375 C 29.875 -2.597656 30.15625 -1.972656 30.71875 -1.609375 C 31.28125 -1.253906 32.203125 -1.078125 33.484375 -1.078125 L 33.484375 0 L 9.953125 0 L 9.953125 -1.078125 C 11.234375 -1.078125 12.15625 -1.335938 12.71875 -1.859375 C 13.28125 -2.378906 13.5625 -2.921875 13.5625 -3.484375 L 13.5625 -78.125 C 13.5625 -79 13.28125 -79.613281 12.71875 -79.96875 C 12.15625 -80.332031 11.234375 -80.515625 9.953125 -80.515625 L 9.953125 -81.59375 L 41.046875 -81.59375 Z M 41.046875 -80.515625 "/></g></g></g><g fill="#102a43" fill-opacity="1"><g transform="translate(923.994472, 172.874986)"><g><path d="M 42.484375 -80.515625 C 40.640625 -80.515625 39.316406 -80.078125 38.515625 -79.203125 L 57.84375 -56.40625 L 77.765625 -78.953125 C 77.285156 -79.441406 76.800781 -79.785156 76.3125 -79.984375 C 75.832031 -80.179688 75.078125 -80.359375 74.046875 -80.515625 L 74.046875 -81.59375 L 103.921875 -81.59375 L 103.921875 -80.515625 C 102.878906 -80.441406 102.035156 -80.320312 101.390625 -80.15625 C 100.753906 -80 100.238281 -79.679688 99.84375 -79.203125 L 68.28125 -43.796875 L 102.84375 -2.515625 C 103.40625 -1.960938 103.90625 -1.582031 104.34375 -1.375 C 104.78125 -1.175781 105.71875 -1.078125 107.15625 -1.078125 L 107.15625 0 L 74.15625 0 L 74.15625 -1.078125 C 75.59375 -1.078125 76.953125 -1.398438 78.234375 -2.046875 L 55.4375 -29.15625 L 35.875 -7.078125 C 35.800781 -6.921875 35.242188 -6.28125 34.203125 -5.15625 C 33.160156 -4.039062 32.640625 -3.160156 32.640625 -2.515625 C 32.640625 -1.960938 32.957031 -1.601562 33.59375 -1.4375 C 34.238281 -1.28125 35.117188 -1.160156 36.234375 -1.078125 L 36.234375 0 L 5.40625 0 L 5.40625 -1.078125 C 6.925781 -1.160156 7.984375 -1.300781 8.578125 -1.5 C 9.179688 -1.695312 9.722656 -2.078125 10.203125 -2.640625 L 44.875 -41.765625 L 14.15625 -78.59375 C 13.519531 -79.394531 13.019531 -79.875 12.65625 -80.03125 C 12.300781 -80.195312 11.441406 -80.359375 10.078125 -80.515625 L 10.078125 -81.59375 L 42.484375 -81.59375 Z M 42.484375 -80.515625 "/></g></g></g></svg>